<svg xmlns="http://www.w3.org/2000/svg" viewBox="0 0 1262 1330" role="img" aria-label="Chan Digital">
<defs>
  <clipPath id="rounded">
    <rect width="1262" height="1330" rx="180" ry="180"/>
  </clipPath>
</defs>
<g clip-path="url(#rounded)">
<rect width="100%" height="100%" fill="#ffffff"/>
<path fill="#0a0a0a" fill-rule="evenodd" d="M 818 198 L 817 199 L 810 199 L 809 200 L 805 200 L 804 201 L 800 201 L 799 202 L 797 202 L 796 203 L 793 203 L 792 204 L 790 204 L 789 205 L 788 205 L 787 206 L 785 206 L 784 207 L 783 207 L 782 208 L 781 208 L 780 209 L 778 209 L 777 210 L 776 210 L 775 211 L 774 211 L 773 212 L 772 212 L 770 214 L 769 214 L 767 216 L 766 216 L 765 217 L 764 217 L 762 219 L 761 219 L 758 222 L 757 222 L 753 226 L 752 226 L 739 239 L 739 240 L 735 244 L 735 245 L 733 247 L 733 248 L 731 250 L 731 251 L 730 252 L 730 253 L 728 255 L 728 256 L 726 258 L 726 260 L 724 262 L 724 263 L 723 264 L 723 265 L 722 266 L 722 267 L 721 268 L 721 270 L 720 271 L 720 272 L 719 273 L 719 275 L 718 276 L 718 278 L 717 279 L 717 282 L 716 283 L 716 285 L 715 286 L 715 290 L 714 291 L 714 295 L 713 296 L 713 303 L 712 304 L 712 495 L 711 496 L 710 495 L 708 495 L 707 494 L 706 494 L 705 493 L 703 493 L 702 492 L 700 492 L 699 491 L 698 491 L 697 490 L 695 490 L 694 489 L 692 489 L 691 488 L 688 488 L 687 487 L 685 487 L 684 486 L 682 486 L 681 485 L 678 485 L 677 484 L 674 484 L 673 483 L 670 483 L 669 482 L 666 482 L 665 481 L 661 481 L 660 480 L 656 480 L 655 479 L 651 479 L 650 478 L 645 478 L 644 477 L 639 477 L 638 476 L 631 476 L 630 475 L 621 475 L 620 474 L 600 474 L 599 473 L 587 473 L 586 474 L 568 474 L 567 475 L 558 475 L 557 476 L 550 476 L 549 477 L 544 477 L 543 478 L 538 478 L 537 479 L 532 479 L 531 480 L 528 480 L 527 481 L 523 481 L 522 482 L 519 482 L 518 483 L 515 483 L 514 484 L 511 484 L 510 485 L 508 485 L 507 486 L 504 486 L 503 487 L 501 487 L 500 488 L 498 488 L 497 489 L 494 489 L 493 490 L 492 490 L 491 491 L 489 491 L 488 492 L 486 492 L 485 493 L 483 493 L 482 494 L 481 494 L 480 495 L 478 495 L 477 496 L 476 496 L 475 497 L 473 497 L 472 498 L 470 498 L 469 499 L 468 499 L 467 500 L 466 500 L 465 501 L 464 501 L 463 502 L 462 502 L 461 503 L 460 503 L 459 504 L 457 504 L 456 505 L 455 505 L 454 506 L 453 506 L 452 507 L 451 507 L 450 508 L 449 508 L 447 510 L 446 510 L 445 511 L 444 511 L 443 512 L 442 512 L 441 513 L 440 513 L 439 514 L 438 514 L 436 516 L 435 516 L 434 517 L 433 517 L 431 519 L 430 519 L 429 520 L 428 520 L 427 521 L 426 521 L 424 523 L 423 523 L 421 525 L 420 525 L 418 527 L 417 527 L 415 529 L 414 529 L 411 532 L 410 532 L 409 533 L 408 533 L 404 537 L 403 537 L 399 541 L 398 541 L 395 544 L 394 544 L 388 550 L 387 550 L 380 557 L 379 557 L 359 577 L 359 578 L 352 585 L 352 586 L 349 589 L 349 590 L 348 591 L 347 591 L 347 592 L 344 595 L 344 596 L 340 600 L 340 601 L 338 603 L 338 604 L 336 606 L 336 607 L 333 610 L 333 611 L 331 613 L 331 614 L 329 616 L 329 617 L 327 619 L 327 620 L 325 622 L 325 623 L 324 624 L 324 625 L 322 627 L 322 628 L 321 629 L 321 630 L 319 632 L 319 633 L 318 634 L 318 635 L 317 636 L 317 637 L 315 639 L 315 640 L 314 641 L 314 642 L 313 643 L 313 644 L 312 645 L 312 647 L 310 649 L 310 651 L 308 653 L 308 654 L 307 655 L 307 656 L 306 657 L 306 659 L 305 660 L 305 661 L 304 662 L 304 663 L 303 664 L 303 666 L 302 667 L 302 668 L 301 669 L 301 670 L 300 671 L 300 673 L 299 674 L 299 675 L 298 676 L 298 678 L 297 679 L 297 680 L 296 681 L 296 683 L 295 684 L 295 687 L 294 688 L 294 689 L 293 690 L 293 692 L 292 693 L 292 696 L 291 697 L 291 699 L 290 700 L 290 702 L 289 703 L 289 706 L 288 707 L 288 709 L 287 710 L 287 714 L 286 715 L 286 718 L 285 719 L 285 722 L 284 723 L 284 727 L 283 728 L 283 732 L 282 733 L 282 738 L 281 739 L 281 745 L 280 746 L 280 752 L 279 753 L 279 762 L 278 763 L 278 778 L 277 779 L 277 800 L 278 801 L 278 817 L 279 818 L 279 827 L 280 828 L 280 835 L 281 836 L 281 841 L 282 842 L 282 847 L 283 848 L 283 852 L 284 853 L 284 857 L 285 858 L 285 862 L 286 863 L 286 865 L 287 866 L 287 870 L 288 871 L 288 873 L 289 874 L 289 877 L 290 878 L 290 881 L 291 882 L 291 884 L 292 885 L 292 887 L 293 888 L 293 890 L 294 891 L 294 893 L 295 894 L 295 896 L 296 897 L 296 898 L 297 899 L 297 901 L 298 902 L 298 904 L 299 905 L 299 907 L 300 908 L 300 909 L 301 910 L 301 911 L 302 912 L 302 914 L 303 915 L 303 916 L 304 917 L 304 918 L 305 919 L 305 920 L 306 921 L 306 923 L 307 924 L 307 925 L 308 926 L 308 927 L 309 928 L 309 929 L 310 930 L 310 931 L 311 932 L 311 933 L 312 934 L 312 935 L 313 936 L 313 937 L 314 938 L 314 939 L 315 940 L 315 941 L 317 943 L 317 944 L 318 945 L 318 946 L 319 947 L 319 948 L 320 949 L 320 950 L 322 952 L 322 953 L 323 954 L 323 955 L 325 957 L 325 958 L 327 960 L 327 961 L 328 962 L 328 963 L 330 965 L 330 966 L 333 969 L 333 970 L 335 972 L 335 973 L 337 975 L 337 976 L 340 979 L 340 980 L 344 984 L 344 985 L 347 988 L 347 989 L 350 992 L 350 993 L 358 1001 L 358 1002 L 380 1024 L 379 1025 L 380 1024 L 381 1025 L 382 1025 L 383 1026 L 383 1027 L 384 1028 L 385 1028 L 390 1033 L 391 1033 L 394 1036 L 395 1036 L 396 1037 L 396 1038 L 397 1038 L 400 1041 L 401 1041 L 405 1045 L 406 1045 L 408 1047 L 409 1047 L 411 1049 L 412 1049 L 415 1052 L 416 1052 L 418 1054 L 419 1054 L 421 1056 L 422 1056 L 423 1057 L 424 1057 L 426 1059 L 427 1059 L 429 1061 L 430 1061 L 432 1063 L 433 1063 L 434 1064 L 435 1064 L 436 1065 L 437 1065 L 438 1066 L 439 1066 L 441 1068 L 442 1068 L 443 1069 L 444 1069 L 445 1070 L 446 1070 L 447 1071 L 448 1071 L 449 1072 L 450 1072 L 451 1073 L 452 1073 L 453 1074 L 454 1074 L 455 1075 L 456 1075 L 457 1076 L 458 1076 L 459 1077 L 460 1077 L 461 1078 L 463 1078 L 465 1080 L 467 1080 L 468 1081 L 469 1081 L 470 1082 L 471 1082 L 472 1083 L 474 1083 L 475 1084 L 476 1084 L 477 1085 L 479 1085 L 480 1086 L 481 1086 L 482 1087 L 484 1087 L 485 1088 L 487 1088 L 488 1089 L 490 1089 L 491 1090 L 493 1090 L 494 1091 L 496 1091 L 497 1092 L 499 1092 L 500 1093 L 502 1093 L 503 1094 L 505 1094 L 506 1095 L 509 1095 L 510 1096 L 513 1096 L 514 1097 L 517 1097 L 518 1098 L 521 1098 L 522 1099 L 525 1099 L 526 1100 L 530 1100 L 531 1101 L 535 1101 L 536 1102 L 541 1102 L 542 1103 L 547 1103 L 548 1104 L 555 1104 L 556 1105 L 564 1105 L 565 1106 L 579 1106 L 580 1107 L 609 1107 L 610 1106 L 623 1106 L 624 1105 L 633 1105 L 634 1104 L 639 1104 L 640 1103 L 646 1103 L 647 1102 L 652 1102 L 653 1101 L 657 1101 L 658 1100 L 662 1100 L 663 1099 L 666 1099 L 667 1098 L 670 1098 L 671 1097 L 674 1097 L 675 1096 L 678 1096 L 679 1095 L 681 1095 L 682 1094 L 685 1094 L 686 1093 L 689 1093 L 690 1092 L 691 1092 L 692 1091 L 694 1091 L 695 1090 L 697 1090 L 698 1089 L 700 1089 L 701 1088 L 703 1088 L 704 1087 L 705 1087 L 706 1086 L 708 1086 L 709 1085 L 711 1085 L 712 1084 L 714 1084 L 715 1085 L 715 1086 L 717 1088 L 717 1089 L 718 1090 L 718 1091 L 720 1093 L 720 1094 L 723 1097 L 724 1097 L 725 1098 L 725 1099 L 726 1099 L 727 1100 L 728 1100 L 731 1103 L 733 1103 L 734 1104 L 735 1104 L 736 1105 L 738 1105 L 739 1106 L 743 1106 L 744 1107 L 913 1107 L 914 1106 L 918 1106 L 919 1105 L 921 1105 L 922 1104 L 923 1104 L 924 1103 L 925 1103 L 926 1102 L 927 1102 L 929 1100 L 930 1100 L 938 1092 L 938 1091 L 940 1089 L 940 1088 L 941 1087 L 941 1086 L 942 1085 L 942 1083 L 943 1082 L 943 1080 L 944 1079 L 944 1072 L 945 1071 L 945 311 L 944 310 L 944 299 L 943 298 L 943 293 L 942 292 L 942 288 L 941 287 L 941 284 L 940 283 L 940 281 L 939 280 L 939 278 L 938 277 L 938 275 L 937 274 L 937 272 L 936 271 L 936 269 L 935 268 L 935 267 L 934 266 L 934 265 L 933 264 L 933 263 L 932 262 L 932 261 L 931 260 L 931 259 L 930 258 L 930 257 L 928 255 L 928 254 L 927 253 L 927 252 L 925 250 L 925 249 L 922 246 L 922 245 L 920 243 L 920 242 L 912 234 L 912 233 L 910 231 L 909 231 L 908 230 L 908 229 L 907 228 L 906 228 L 901 223 L 900 223 L 898 221 L 897 221 L 894 218 L 893 218 L 891 216 L 890 216 L 888 214 L 887 214 L 886 213 L 885 213 L 884 212 L 883 212 L 881 210 L 879 210 L 878 209 L 877 209 L 876 208 L 875 208 L 874 207 L 873 207 L 872 206 L 870 206 L 869 205 L 867 205 L 866 204 L 864 204 L 863 203 L 861 203 L 860 202 L 857 202 L 856 201 L 853 201 L 852 200 L 847 200 L 846 199 L 839 199 L 838 198 Z M 712 497 L 713 496 L 714 497 L 715 497 L 716 498 L 718 498 L 719 499 L 720 499 L 721 500 L 723 500 L 725 502 L 727 502 L 728 503 L 729 503 L 730 504 L 731 504 L 732 505 L 733 505 L 734 506 L 735 506 L 736 507 L 737 507 L 738 508 L 739 508 L 740 509 L 741 509 L 742 510 L 743 510 L 745 512 L 746 512 L 747 513 L 748 513 L 749 514 L 750 514 L 752 516 L 753 516 L 754 517 L 755 517 L 756 518 L 757 518 L 758 519 L 759 519 L 762 522 L 763 522 L 764 523 L 765 523 L 767 525 L 768 525 L 770 527 L 771 527 L 772 528 L 771 529 L 772 528 L 773 528 L 776 531 L 777 531 L 780 534 L 781 534 L 783 536 L 784 536 L 788 540 L 789 540 L 793 544 L 794 544 L 800 550 L 801 550 L 809 558 L 810 558 L 827 575 L 827 576 L 834 583 L 834 584 L 840 590 L 840 591 L 844 595 L 844 596 L 848 600 L 848 601 L 850 603 L 850 604 L 853 607 L 853 608 L 855 610 L 855 611 L 857 613 L 857 614 L 859 616 L 859 617 L 861 619 L 861 620 L 863 622 L 863 623 L 864 624 L 864 625 L 866 627 L 866 628 L 867 629 L 867 630 L 869 632 L 869 633 L 870 634 L 870 635 L 872 637 L 872 638 L 873 639 L 873 641 L 875 643 L 875 644 L 876 645 L 876 646 L 877 647 L 877 648 L 878 649 L 878 650 L 879 651 L 879 652 L 880 653 L 880 654 L 881 655 L 881 656 L 882 657 L 882 658 L 883 659 L 883 660 L 884 661 L 884 663 L 885 664 L 885 665 L 886 666 L 886 667 L 887 668 L 887 670 L 888 671 L 888 673 L 889 674 L 889 675 L 890 676 L 890 677 L 891 678 L 891 680 L 892 681 L 892 683 L 893 684 L 893 686 L 894 687 L 894 689 L 895 690 L 895 692 L 896 693 L 896 695 L 897 696 L 897 698 L 898 699 L 898 701 L 899 702 L 899 705 L 900 706 L 900 709 L 901 710 L 901 713 L 902 714 L 902 716 L 903 717 L 903 721 L 904 722 L 904 726 L 905 727 L 905 731 L 906 732 L 906 737 L 907 738 L 907 742 L 908 743 L 908 750 L 909 751 L 909 759 L 910 760 L 910 772 L 911 773 L 911 807 L 910 808 L 910 820 L 909 821 L 909 829 L 908 830 L 908 837 L 907 838 L 907 843 L 906 844 L 906 849 L 905 850 L 905 853 L 904 854 L 904 858 L 903 859 L 903 863 L 902 864 L 902 867 L 901 868 L 901 871 L 900 872 L 900 875 L 899 876 L 899 878 L 898 879 L 898 881 L 897 882 L 897 885 L 896 886 L 896 888 L 895 889 L 895 890 L 894 891 L 894 893 L 893 894 L 893 896 L 892 897 L 892 899 L 891 900 L 891 902 L 890 903 L 890 904 L 889 905 L 889 907 L 888 908 L 888 909 L 887 910 L 887 912 L 886 913 L 886 914 L 885 915 L 885 916 L 884 917 L 884 919 L 883 920 L 883 921 L 882 922 L 882 923 L 881 924 L 881 925 L 880 926 L 880 927 L 879 928 L 879 929 L 878 930 L 878 931 L 877 932 L 877 933 L 876 934 L 876 935 L 875 936 L 875 937 L 874 938 L 874 939 L 873 940 L 873 941 L 872 942 L 872 943 L 871 944 L 871 945 L 870 946 L 870 947 L 868 949 L 868 950 L 866 952 L 866 953 L 865 954 L 865 955 L 863 957 L 863 958 L 861 960 L 861 961 L 860 962 L 860 963 L 858 965 L 858 966 L 856 968 L 856 969 L 853 972 L 853 973 L 851 975 L 851 976 L 848 979 L 848 980 L 845 983 L 845 984 L 842 987 L 842 988 L 838 992 L 838 993 L 829 1002 L 829 1003 L 806 1026 L 805 1026 L 798 1033 L 797 1033 L 793 1037 L 792 1037 L 788 1041 L 787 1041 L 784 1044 L 783 1044 L 780 1047 L 779 1047 L 777 1049 L 776 1049 L 773 1052 L 772 1052 L 770 1054 L 769 1054 L 767 1056 L 766 1056 L 764 1058 L 763 1058 L 762 1059 L 761 1059 L 759 1061 L 758 1061 L 756 1063 L 755 1063 L 754 1064 L 753 1064 L 752 1065 L 751 1065 L 749 1067 L 748 1067 L 747 1068 L 746 1068 L 745 1069 L 744 1069 L 743 1070 L 742 1070 L 741 1071 L 740 1071 L 738 1073 L 737 1073 L 736 1074 L 734 1074 L 732 1076 L 730 1076 L 729 1077 L 728 1077 L 727 1078 L 726 1078 L 725 1079 L 724 1079 L 723 1080 L 722 1080 L 721 1081 L 720 1081 L 719 1082 L 717 1082 L 716 1083 L 715 1083 L 713 1081 L 713 1078 L 712 1077 L 712 893 L 710 893 L 697 906 L 696 906 L 691 911 L 690 911 L 687 914 L 686 914 L 683 917 L 682 917 L 679 920 L 678 920 L 677 921 L 676 921 L 674 923 L 673 923 L 672 924 L 671 924 L 669 926 L 668 926 L 667 927 L 666 927 L 665 928 L 664 928 L 663 929 L 662 929 L 661 930 L 660 930 L 659 931 L 658 931 L 657 932 L 655 932 L 654 933 L 653 933 L 652 934 L 650 934 L 649 935 L 648 935 L 647 936 L 645 936 L 644 937 L 642 937 L 641 938 L 638 938 L 637 939 L 635 939 L 634 940 L 632 940 L 631 941 L 627 941 L 626 942 L 622 942 L 621 943 L 616 943 L 615 944 L 606 944 L 605 945 L 583 945 L 582 944 L 574 944 L 573 943 L 567 943 L 566 942 L 562 942 L 561 941 L 558 941 L 557 940 L 554 940 L 553 939 L 550 939 L 549 938 L 547 938 L 546 937 L 544 937 L 543 936 L 541 936 L 540 935 L 539 935 L 538 934 L 536 934 L 535 933 L 534 933 L 533 932 L 532 932 L 531 931 L 530 931 L 529 930 L 527 930 L 526 929 L 525 929 L 524 928 L 523 928 L 521 926 L 520 926 L 519 925 L 518 925 L 517 924 L 516 924 L 515 923 L 514 923 L 512 921 L 511 921 L 509 919 L 508 919 L 506 917 L 505 917 L 503 915 L 502 915 L 498 911 L 497 911 L 492 906 L 491 906 L 490 905 L 490 904 L 489 904 L 480 895 L 480 894 L 473 887 L 473 886 L 469 882 L 469 881 L 467 879 L 467 878 L 465 876 L 465 875 L 463 873 L 463 872 L 462 871 L 462 870 L 460 868 L 460 867 L 459 866 L 459 865 L 457 863 L 457 861 L 455 859 L 455 858 L 454 857 L 454 856 L 453 855 L 453 853 L 452 852 L 452 851 L 451 850 L 451 849 L 450 848 L 450 846 L 449 845 L 449 843 L 448 842 L 448 841 L 447 840 L 447 838 L 446 837 L 446 834 L 445 833 L 445 831 L 444 830 L 444 827 L 443 826 L 443 822 L 442 821 L 442 817 L 441 816 L 441 810 L 440 809 L 440 800 L 439 799 L 439 782 L 440 781 L 440 771 L 441 770 L 441 764 L 442 763 L 442 759 L 443 758 L 443 755 L 444 754 L 444 751 L 445 750 L 445 747 L 446 746 L 446 744 L 447 743 L 447 741 L 448 740 L 448 738 L 449 737 L 449 735 L 450 734 L 450 733 L 451 732 L 451 730 L 452 729 L 452 728 L 453 727 L 453 726 L 454 725 L 454 724 L 455 723 L 455 722 L 456 721 L 456 720 L 457 719 L 457 718 L 458 717 L 458 716 L 459 715 L 459 714 L 460 713 L 460 712 L 461 711 L 461 710 L 464 707 L 464 706 L 465 705 L 465 704 L 468 701 L 468 700 L 471 697 L 471 696 L 475 692 L 475 691 L 480 686 L 480 685 L 483 682 L 484 682 L 487 679 L 487 678 L 488 677 L 489 677 L 495 671 L 496 671 L 500 667 L 501 667 L 504 664 L 505 664 L 507 662 L 508 662 L 510 660 L 511 660 L 513 658 L 514 658 L 515 657 L 516 657 L 518 655 L 519 655 L 520 654 L 521 654 L 522 653 L 523 653 L 524 652 L 525 652 L 526 651 L 527 651 L 528 650 L 529 650 L 530 649 L 531 649 L 532 648 L 533 648 L 534 647 L 536 647 L 537 646 L 539 646 L 540 645 L 541 645 L 542 644 L 544 644 L 545 643 L 547 643 L 548 642 L 550 642 L 551 641 L 554 641 L 555 640 L 558 640 L 559 639 L 563 639 L 564 638 L 567 638 L 568 637 L 575 637 L 576 636 L 588 636 L 589 635 L 599 635 L 600 636 L 612 636 L 613 637 L 619 637 L 620 638 L 625 638 L 626 639 L 629 639 L 630 640 L 633 640 L 634 641 L 637 641 L 638 642 L 640 642 L 641 643 L 643 643 L 644 644 L 646 644 L 647 645 L 649 645 L 650 646 L 651 646 L 652 647 L 653 647 L 654 648 L 656 648 L 657 649 L 658 649 L 659 650 L 660 650 L 661 651 L 662 651 L 663 652 L 664 652 L 665 653 L 666 653 L 667 654 L 668 654 L 669 655 L 670 655 L 672 657 L 673 657 L 674 658 L 675 658 L 676 659 L 677 659 L 680 662 L 681 662 L 683 664 L 684 664 L 687 667 L 688 667 L 690 669 L 691 669 L 692 670 L 692 671 L 693 671 L 694 672 L 694 673 L 695 673 L 699 677 L 700 677 L 701 678 L 701 679 L 705 683 L 706 683 L 708 685 L 708 686 L 712 690 Z"/>
</g>
</svg>